<svg xmlns="http://www.w3.org/2000/svg" viewBox="0 0 40 40"><title>css</title><g id="css"><polygon points="37.36 0.39 34.22 35.63 20.02 39.61 5.84 35.69 2.64 0.39 37.36 0.39" style="fill:#1572b7"/><polygon points="34.16 3.17 20 3.17 20 36.57 31.46 33.53 34.16 3.17" style="fill:#33a7dd"/><polygon points="27.1 11.49 9.2 11.49 10.08 16.81 26.82 16.81 27.1 11.49" style="fill:none"/><polygon points="10.08 16.81 10.57 19.81 26.66 19.81 26.82 16.81 10.08 16.81" style="fill:#fff"/><polygon points="8.7 8.49 9.2 11.49 27.1 11.49 26.82 16.81 26.66 19.81 26.34 25.99 20 30.01 14.82 26.7 14.16 22.68 11.2 23.16 12.07 28.51 20 33.57 29.25 27.7 30.26 8.49 8.7 8.49" style="fill:#fff"/></g></svg>