<svg xmlns="http://www.w3.org/2000/svg" viewBox="0 0 100 100">
    <title>tailwindcsss</title>
    <path fill="#06b6d4" d="M50,20.92q-19.5,0-24.38,19.39,7.3-9.7,17.07-7.27c3.7.92,6.36,3.59,9.29,6.55C56.76,44.42,62.3,50,74.38,50Q93.9,50,98.76,30.61q-7.31,9.7-17.06,7.27c-3.71-.92-6.37-3.6-9.3-6.56C67.62,26.5,62.09,20.92,50,20.92ZM25.62,50Q6.11,50,1.24,69.39,8.55,59.7,18.3,62.12c3.71.92,6.37,3.6,9.3,6.56,4.78,4.82,10.31,10.4,22.4,10.4q19.5,0,24.38-19.38Q67.08,69.39,57.31,67C53.61,66,51,63.37,48,60.41,43.24,55.58,37.7,50,25.62,50Z"/>
</svg>